<?xml version="1.0" standalone="no"?>
<!DOCTYPE svg PUBLIC "-//W3C//DTD SVG 20010904//EN"
 "http://www.w3.org/TR/2001/REC-SVG-20010904/DTD/svg10.dtd">
<svg version="1.0" xmlns="http://www.w3.org/2000/svg"
 width="252" height="110" viewBox="0 0 466.000000 149.000000"
 preserveAspectRatio="xMidYMid meet">

<g transform="translate(0.000000,149.000000) scale(0.100000,-0.100000)"
fill="#000000" stroke="none">
<path d="M3874 1421 c-68 -42 -64 -2 -64 -676 0 -594 1 -611 20 -643 36 -59
57 -62 377 -62 317 0 333 3 377 63 21 28 21 40 24 613 2 373 -1 598 -8 622 -5
21 -24 51 -40 67 l-31 30 -312 3 c-294 2 -314 1 -343 -17z m226 -31 c17 -17
33 -20 104 -20 93 0 116 5 116 26 0 22 145 19 190 -4 72 -35 70 -20 70 -650 0
-601 0 -603 -50 -647 -21 -19 -38 -20 -311 -23 -315 -3 -330 -1 -366 55 -17
25 -18 71 -18 613 0 550 1 588 18 614 26 39 71 55 155 56 59 0 76 -4 92 -20z" className="fill-gray"/>
<path d="M4151 1074 c-19 -24 -19 -28 -6 -55 19 -36 19 -39 -2 -39 -31 -1
-107 -40 -141 -73 -48 -47 -75 -94 -88 -157 -9 -49 -14 -56 -40 -61 -16 -4
133 -7 331 -6 198 0 349 2 335 4 -30 6 -40 19 -40 53 0 40 -44 122 -86 162
-34 32 -83 59 -147 81 -16 6 -16 9 -3 35 23 45 -4 82 -61 82 -22 0 -38 -8 -52
-26z m160 -184 c36 -19 49 -31 44 -41 -3 -4 -26 3 -52 16 -25 14 -54 25 -64
25 -19 0 -25 11 -13 22 7 7 51 -5 85 -22z"/>
<path d="M4057 611 c-13 -5 12 -22 96 -69 l114 -62 87 0 c60 0 97 -5 117 -16
17 -8 32 -14 34 -12 2 2 6 24 10 49 l7 45 -61 37 -60 38 -103 -3 c-95 -3 -103
-4 -103 -23 0 -18 9 -21 75 -26 l75 -5 -75 -2 c-67 -2 -76 0 -95 22 -21 25
-85 40 -118 27z"/>
<path d="M4168 164 c-11 -23 -10 -29 10 -44 28 -23 60 -15 68 16 13 53 -56 77
-78 28z" className="fill-gray"/>
<path d="M1759 1161 c-66 -66 -20 -171 75 -171 63 0 96 30 103 92 5 42 3 50
-25 78 -25 25 -38 30 -77 30 -38 0 -52 -5 -76 -29z"/>
<path d="M1240 765 l0 -355 90 0 90 0 0 355 0 355 -90 0 -90 0 0 -355z"/>
<path d="M1490 765 l0 -355 90 0 90 0 0 355 0 355 -90 0 -90 0 0 -355z"/>
<path d="M90 1086 c0 -2 54 -100 120 -218 l120 -215 0 -121 0 -122 95 0 95 0
0 117 0 117 112 200 c61 111 118 211 126 224 l14 22 -109 0 -109 0 -59 -120
c-33 -66 -63 -120 -67 -120 -4 0 -35 54 -68 120 l-60 120 -105 0 c-58 0 -105
-2 -105 -4z"/>
<path d="M1965 978 c-22 -57 -41 -95 -43 -85 -3 14 -16 17 -88 17 l-84 0 0
-234 c0 -129 -3 -241 -6 -250 -5 -14 7 -16 98 -16 l104 0 18 50 18 50 115 0
114 0 21 -50 21 -50 99 0 c91 0 100 2 94 18 -4 9 -62 160 -129 334 l-122 317
-95 1 -95 0 -40 -102z m173 -221 c17 -52 32 -99 32 -105 0 -12 -131 -18 -142
-7 -6 6 64 205 72 205 3 0 20 -42 38 -93z" className="fill-gray"/>
<path d="M812 912 c-70 -25 -121 -68 -152 -128 -34 -66 -35 -179 -3 -240 84
-159 330 -193 466 -66 26 24 57 72 57 87 0 3 -35 5 -78 5 -58 0 -88 -5 -117
-20 -60 -31 -112 -24 -154 21 -43 47 -35 49 175 49 l197 0 -7 57 c-18 149
-111 238 -264 249 -50 3 -81 0 -120 -14z m152 -126 c35 -14 69 -53 60 -68 -7
-10 -214 -11 -214 0 0 18 35 55 64 68 40 17 49 17 90 0z"/>
<path d="M2708 915 c-20 -7 -48 -21 -62 -31 -15 -9 -28 -15 -29 -13 -1 2 -7
13 -13 24 -9 16 -23 21 -73 23 l-61 3 0 -351 0 -350 90 0 90 0 0 105 c0 58 2
105 4 105 2 0 23 -7 46 -15 95 -33 208 -10 278 58 65 63 90 192 55 292 -42
125 -198 197 -325 150z m112 -152 c36 -21 50 -52 50 -108 0 -35 -6 -49 -31
-74 -26 -26 -38 -31 -78 -31 -60 0 -96 26 -112 79 -31 104 78 190 171 134z" className="fill-gray"/>
<path d="M3332 915 c-24 -7 -53 -22 -64 -32 -19 -17 -20 -17 -34 2 -8 10 -14
22 -14 27 0 4 -29 8 -65 8 l-65 0 0 -350 0 -350 90 0 90 0 0 105 c0 58 3 105
8 105 4 0 25 -7 47 -15 125 -45 257 5 315 119 54 107 37 242 -43 324 -60 62
-172 86 -265 57z m115 -155 c42 -25 61 -82 43 -134 -17 -52 -52 -76 -112 -76
-41 0 -54 5 -79 29 -28 28 -34 52 -29 111 6 76 104 115 177 70z" className="fill-gray"/>
</g>
</svg>
